<svg id="visual" viewBox="0 0 960 540" width="960" height="540" xmlns="http://www.w3.org/2000/svg" xmlns:xlink="http://www.w3.org/1999/xlink" version="1.1"><g stroke-width="1" stroke-linejoin="bevel"><path d="M428.7 233L399.7 189L335 284Z" fill="#e5e5e5" stroke="#e5e5e5"></path><path d="M399.7 189L350 149L335 284Z" fill="#eeeeee" stroke="#eeeeee"></path><path d="M335 284L431.7 344L428.7 233Z" fill="#e8e8e8" stroke="#e8e8e8"></path><path d="M335 284L332 379L431.7 344Z" fill="#eaeaea" stroke="#eaeaea"></path><path d="M218.3 204L218.3 257L335 284Z" fill="#eaeaea" stroke="#eaeaea"></path><path d="M335 284L239.3 327L332 379Z" fill="#e8e8e8" stroke="#e8e8e8"></path><path d="M350 149L218.3 204L335 284Z" fill="#eaeaea" stroke="#eaeaea"></path><path d="M218.3 257L239.3 327L335 284Z" fill="#e8e8e8" stroke="#e8e8e8"></path><path d="M425.7 68L344 83L350 149Z" fill="#e5e5e5" stroke="#e5e5e5"></path><path d="M350 149L227.3 73L218.3 204Z" fill="#efefef" stroke="#efefef"></path><path d="M425.7 68L350 149L399.7 189Z" fill="#e3e3e3" stroke="#e3e3e3"></path><path d="M537.3 229L529.3 213L428.7 233Z" fill="#e3e3e3" stroke="#e3e3e3"></path><path d="M428.7 233L529.3 213L399.7 189Z" fill="#f1f1f1" stroke="#f1f1f1"></path><path d="M529.3 351L537.3 229L428.7 233Z" fill="#e5e5e5" stroke="#e5e5e5"></path><path d="M529.3 213L425.7 68L399.7 189Z" fill="#e5e5e5" stroke="#e5e5e5"></path><path d="M503.3 419L529.3 351L431.7 344Z" fill="#eeeeee" stroke="#eeeeee"></path><path d="M431.7 344L529.3 351L428.7 233Z" fill="#eaeaea" stroke="#eaeaea"></path><path d="M278 0L227.3 73L344 83Z" fill="#eeeeee" stroke="#eeeeee"></path><path d="M344 83L227.3 73L350 149Z" fill="#ececec" stroke="#ececec"></path><path d="M455.7 446L503.3 419L431.7 344Z" fill="#eeeeee" stroke="#eeeeee"></path><path d="M332 379L455.7 446L431.7 344Z" fill="#e1e1e1" stroke="#e1e1e1"></path><path d="M218.3 441L308 455L332 379Z" fill="#e8e8e8" stroke="#e8e8e8"></path><path d="M332 379L308 455L455.7 446Z" fill="#eaeaea" stroke="#eaeaea"></path><path d="M675 157L543.3 78L529.3 213Z" fill="#eaeaea" stroke="#eaeaea"></path><path d="M529.3 213L543.3 78L425.7 68Z" fill="#f3f3f3" stroke="#f3f3f3"></path><path d="M239.3 327L218.3 441L332 379Z" fill="#e1e1e1" stroke="#e1e1e1"></path><path d="M112.7 326L218.3 441L239.3 327Z" fill="#ececec" stroke="#ececec"></path><path d="M543.3 78L458.7 0L425.7 68Z" fill="#ececec" stroke="#ececec"></path><path d="M425.7 68L458.7 0L344 83Z" fill="#e5e5e5" stroke="#e5e5e5"></path><path d="M458.7 0L278 0L344 83Z" fill="#e3e3e3" stroke="#e3e3e3"></path><path d="M98.7 111L110.7 209L218.3 204Z" fill="#eeeeee" stroke="#eeeeee"></path><path d="M218.3 204L110.7 209L218.3 257Z" fill="#efefef" stroke="#efefef"></path><path d="M218.3 257L112.7 326L239.3 327Z" fill="#e3e3e3" stroke="#e3e3e3"></path><path d="M98.7 111L218.3 204L227.3 73Z" fill="#ececec" stroke="#ececec"></path><path d="M529.3 351L638 291L537.3 229Z" fill="#eaeaea" stroke="#eaeaea"></path><path d="M537.3 229L675 157L529.3 213Z" fill="#eaeaea" stroke="#eaeaea"></path><path d="M621 389L638 291L529.3 351Z" fill="#efefef" stroke="#efefef"></path><path d="M91.7 255L112.7 326L218.3 257Z" fill="#f3f3f3" stroke="#f3f3f3"></path><path d="M110.7 209L91.7 255L218.3 257Z" fill="#e5e5e5" stroke="#e5e5e5"></path><path d="M663 0L528.3 0L543.3 78Z" fill="#f1f1f1" stroke="#f1f1f1"></path><path d="M543.3 78L528.3 0L458.7 0Z" fill="#f1f1f1" stroke="#f1f1f1"></path><path d="M278 0L208.3 0L227.3 73Z" fill="#efefef" stroke="#efefef"></path><path d="M626 465L621 389L503.3 419Z" fill="#e3e3e3" stroke="#e3e3e3"></path><path d="M503.3 419L621 389L529.3 351Z" fill="#e6e6e6" stroke="#e6e6e6"></path><path d="M208.3 0L98.7 111L227.3 73Z" fill="#ececec" stroke="#ececec"></path><path d="M0 209L0 256L91.7 255Z" fill="#e3e3e3" stroke="#e3e3e3"></path><path d="M308 455L414.7 540L455.7 446Z" fill="#e3e3e3" stroke="#e3e3e3"></path><path d="M455.7 446L492.3 540L503.3 419Z" fill="#f3f3f3" stroke="#f3f3f3"></path><path d="M220.3 540L351 540L308 455Z" fill="#e5e5e5" stroke="#e5e5e5"></path><path d="M351 540L414.7 540L308 455Z" fill="#f3f3f3" stroke="#f3f3f3"></path><path d="M712.7 282L675 157L638 291Z" fill="#ececec" stroke="#ececec"></path><path d="M638 291L675 157L537.3 229Z" fill="#e3e3e3" stroke="#e3e3e3"></path><path d="M414.7 540L492.3 540L455.7 446Z" fill="#ececec" stroke="#ececec"></path><path d="M0 319L91.7 415L112.7 326Z" fill="#f3f3f3" stroke="#f3f3f3"></path><path d="M112.7 326L91.7 415L218.3 441Z" fill="#eaeaea" stroke="#eaeaea"></path><path d="M218.3 441L220.3 540L308 455Z" fill="#e8e8e8" stroke="#e8e8e8"></path><path d="M146.7 540L220.3 540L218.3 441Z" fill="#e8e8e8" stroke="#e8e8e8"></path><path d="M492.3 540L626 465L503.3 419Z" fill="#efefef" stroke="#efefef"></path><path d="M709.7 372L712.7 282L638 291Z" fill="#e1e1e1" stroke="#e1e1e1"></path><path d="M675 157L664 65L543.3 78Z" fill="#e5e5e5" stroke="#e5e5e5"></path><path d="M709.7 372L638 291L621 389Z" fill="#f1f1f1" stroke="#f1f1f1"></path><path d="M786.7 83L706.7 0L664 65Z" fill="#e6e6e6" stroke="#e6e6e6"></path><path d="M626 465L709.7 372L621 389Z" fill="#e6e6e6" stroke="#e6e6e6"></path><path d="M208.3 0L87.7 0L98.7 111Z" fill="#f3f3f3" stroke="#f3f3f3"></path><path d="M0 209L91.7 255L110.7 209Z" fill="#f3f3f3" stroke="#f3f3f3"></path><path d="M91.7 255L0 319L112.7 326Z" fill="#e3e3e3" stroke="#e3e3e3"></path><path d="M0 209L110.7 209L98.7 111Z" fill="#eeeeee" stroke="#eeeeee"></path><path d="M0 123L0 209L98.7 111Z" fill="#f3f3f3" stroke="#f3f3f3"></path><path d="M91.7 415L146.7 540L218.3 441Z" fill="#e3e3e3" stroke="#e3e3e3"></path><path d="M0 457L146.7 540L91.7 415Z" fill="#f3f3f3" stroke="#f3f3f3"></path><path d="M706.7 0L663 0L664 65Z" fill="#e8e8e8" stroke="#e8e8e8"></path><path d="M664 65L663 0L543.3 78Z" fill="#e3e3e3" stroke="#e3e3e3"></path><path d="M0 256L0 319L91.7 255Z" fill="#e3e3e3" stroke="#e3e3e3"></path><path d="M0 0L0 123L98.7 111Z" fill="#eeeeee" stroke="#eeeeee"></path><path d="M770.7 138L664 65L675 157Z" fill="#ececec" stroke="#ececec"></path><path d="M845.3 204L770.7 138L712.7 282Z" fill="#e3e3e3" stroke="#e3e3e3"></path><path d="M712.7 282L770.7 138L675 157Z" fill="#e8e8e8" stroke="#e8e8e8"></path><path d="M626 465L755.7 480L709.7 372Z" fill="#e3e3e3" stroke="#e3e3e3"></path><path d="M878.3 91L786.7 83L770.7 138Z" fill="#e8e8e8" stroke="#e8e8e8"></path><path d="M492.3 540L670 540L626 465Z" fill="#e8e8e8" stroke="#e8e8e8"></path><path d="M0 319L0 457L91.7 415Z" fill="#efefef" stroke="#efefef"></path><path d="M87.7 0L0 0L98.7 111Z" fill="#ececec" stroke="#ececec"></path><path d="M770.7 138L786.7 83L664 65Z" fill="#e5e5e5" stroke="#e5e5e5"></path><path d="M845.3 204L712.7 282L852.3 233Z" fill="#f1f1f1" stroke="#f1f1f1"></path><path d="M670 540L755.7 480L626 465Z" fill="#e8e8e8" stroke="#e8e8e8"></path><path d="M852.3 233L712.7 282L869.3 369Z" fill="#eeeeee" stroke="#eeeeee"></path><path d="M0 457L0 540L146.7 540Z" fill="#e6e6e6" stroke="#e6e6e6"></path><path d="M869.3 369L712.7 282L709.7 372Z" fill="#e5e5e5" stroke="#e5e5e5"></path><path d="M670 540L763.7 540L755.7 480Z" fill="#e5e5e5" stroke="#e5e5e5"></path><path d="M755.7 480L869.3 369L709.7 372Z" fill="#e6e6e6" stroke="#e6e6e6"></path><path d="M872.3 430L869.3 369L755.7 480Z" fill="#e3e3e3" stroke="#e3e3e3"></path><path d="M878.3 91L838.3 0L786.7 83Z" fill="#e6e6e6" stroke="#e6e6e6"></path><path d="M786.7 83L838.3 0L706.7 0Z" fill="#efefef" stroke="#efefef"></path><path d="M878.3 91L770.7 138L845.3 204Z" fill="#e5e5e5" stroke="#e5e5e5"></path><path d="M878.3 91L845.3 204L960 204Z" fill="#eaeaea" stroke="#eaeaea"></path><path d="M960 204L845.3 204L852.3 233Z" fill="#ececec" stroke="#ececec"></path><path d="M894.3 540L872.3 430L755.7 480Z" fill="#ececec" stroke="#ececec"></path><path d="M869.3 369L960 242L852.3 233Z" fill="#f1f1f1" stroke="#f1f1f1"></path><path d="M960 357L960 242L869.3 369Z" fill="#f1f1f1" stroke="#f1f1f1"></path><path d="M878.3 91L960 0L838.3 0Z" fill="#efefef" stroke="#efefef"></path><path d="M960 242L960 204L852.3 233Z" fill="#e8e8e8" stroke="#e8e8e8"></path><path d="M960 434L960 357L869.3 369Z" fill="#f3f3f3" stroke="#f3f3f3"></path><path d="M960 434L869.3 369L872.3 430Z" fill="#f1f1f1" stroke="#f1f1f1"></path><path d="M763.7 540L894.3 540L755.7 480Z" fill="#e1e1e1" stroke="#e1e1e1"></path><path d="M960 204L960 88L878.3 91Z" fill="#f1f1f1" stroke="#f1f1f1"></path><path d="M894.3 540L960 434L872.3 430Z" fill="#e8e8e8" stroke="#e8e8e8"></path><path d="M960 88L960 0L878.3 91Z" fill="#e3e3e3" stroke="#e3e3e3"></path><path d="M894.3 540L960 540L960 434Z" fill="#ececec" stroke="#ececec"></path></g></svg>