<svg id="visual" viewBox="0 0 960 540" width="960" height="540" xmlns="http://www.w3.org/2000/svg" xmlns:xlink="http://www.w3.org/1999/xlink" version="1.1"><g stroke-width="1" stroke-linejoin="bevel"><path d="M458.7 298L524.3 388L525.3 281Z" fill="#3d444b" stroke="#3d444b"></path><path d="M458.7 298L464.7 388L524.3 388Z" fill="#49515a" stroke="#49515a"></path><path d="M323 387L444.7 420L464.7 388Z" fill="#4b545d" stroke="#4b545d"></path><path d="M464.7 388L444.7 420L524.3 388Z" fill="#3b4248" stroke="#3b4248"></path><path d="M444.7 420L560.3 425L524.3 388Z" fill="#343a40" stroke="#343a40"></path><path d="M524.3 388L651 393L525.3 281Z" fill="#383f46" stroke="#383f46"></path><path d="M560.3 425L651 393L524.3 388Z" fill="#343a40" stroke="#343a40"></path><path d="M651 393L640 241L525.3 281Z" fill="#4b545d" stroke="#4b545d"></path><path d="M525.3 281L408.7 164L458.7 298Z" fill="#4b545d" stroke="#4b545d"></path><path d="M640 241L550.3 171L525.3 281Z" fill="#444c54" stroke="#444c54"></path><path d="M408.7 164L333 309L458.7 298Z" fill="#343a40" stroke="#343a40"></path><path d="M458.7 298L333 309L464.7 388Z" fill="#464f57" stroke="#464f57"></path><path d="M333 309L323 387L464.7 388Z" fill="#414a51" stroke="#414a51"></path><path d="M323 387L355 454L444.7 420Z" fill="#4b545d" stroke="#4b545d"></path><path d="M444.7 420L555.3 540L560.3 425Z" fill="#3b4248" stroke="#3b4248"></path><path d="M550.3 171L408.7 164L525.3 281Z" fill="#444c54" stroke="#444c54"></path><path d="M560.3 425L654 462L651 393Z" fill="#444c54" stroke="#444c54"></path><path d="M555.3 540L654 462L560.3 425Z" fill="#464f57" stroke="#464f57"></path><path d="M395.7 540L555.3 540L444.7 420Z" fill="#49515a" stroke="#49515a"></path><path d="M285 540L395.7 540L355 454Z" fill="#3f474e" stroke="#3f474e"></path><path d="M355 454L395.7 540L444.7 420Z" fill="#343a40" stroke="#343a40"></path><path d="M716.7 168L672 168L640 241Z" fill="#363d43" stroke="#363d43"></path><path d="M640 241L672 168L550.3 171Z" fill="#343a40" stroke="#343a40"></path><path d="M550.3 171L532.3 73L408.7 164Z" fill="#444c54" stroke="#444c54"></path><path d="M756.7 362L640 241L651 393Z" fill="#3f474e" stroke="#3f474e"></path><path d="M408.7 164L313 168L333 309Z" fill="#444c54" stroke="#444c54"></path><path d="M333 309L245.3 331L323 387Z" fill="#444c54" stroke="#444c54"></path><path d="M759.7 444L756.7 362L651 393Z" fill="#363d43" stroke="#363d43"></path><path d="M216.3 258L245.3 331L333 309Z" fill="#3b4248" stroke="#3b4248"></path><path d="M323 387L243.3 482L355 454Z" fill="#464f57" stroke="#464f57"></path><path d="M668 85L532.3 73L550.3 171Z" fill="#343a40" stroke="#343a40"></path><path d="M408.7 164L332 65L313 168Z" fill="#3b4248" stroke="#3b4248"></path><path d="M555.3 540L668 540L654 462Z" fill="#49515a" stroke="#49515a"></path><path d="M654 462L759.7 444L651 393Z" fill="#464f57" stroke="#464f57"></path><path d="M778.7 305L716.7 168L640 241Z" fill="#464f57" stroke="#464f57"></path><path d="M672 168L668 85L550.3 171Z" fill="#444c54" stroke="#444c54"></path><path d="M756.7 362L778.7 305L640 241Z" fill="#343a40" stroke="#343a40"></path><path d="M532.3 73L407.7 73L408.7 164Z" fill="#49515a" stroke="#49515a"></path><path d="M750.7 540L759.7 444L654 462Z" fill="#49515a" stroke="#49515a"></path><path d="M890.3 370L828.3 281L778.7 305Z" fill="#3b4248" stroke="#3b4248"></path><path d="M313 168L216.3 258L333 309Z" fill="#383f46" stroke="#383f46"></path><path d="M180.3 198L216.3 258L313 168Z" fill="#3d444b" stroke="#3d444b"></path><path d="M716.7 168L668 85L672 168Z" fill="#49515a" stroke="#49515a"></path><path d="M130.7 394L243.3 482L245.3 331Z" fill="#414a51" stroke="#414a51"></path><path d="M245.3 331L243.3 482L323 387Z" fill="#4b545d" stroke="#4b545d"></path><path d="M243.3 482L285 540L355 454Z" fill="#343a40" stroke="#343a40"></path><path d="M351 0L332 65L407.7 73Z" fill="#3d444b" stroke="#3d444b"></path><path d="M407.7 73L332 65L408.7 164Z" fill="#4b545d" stroke="#4b545d"></path><path d="M668 540L750.7 540L654 462Z" fill="#3d444b" stroke="#3d444b"></path><path d="M890.3 370L778.7 305L756.7 362Z" fill="#3b4248" stroke="#3b4248"></path><path d="M835.3 430L756.7 362L759.7 444Z" fill="#49515a" stroke="#49515a"></path><path d="M778.7 305L828.3 281L716.7 168Z" fill="#414a51" stroke="#414a51"></path><path d="M716.7 168L763.7 80L668 85Z" fill="#363d43" stroke="#363d43"></path><path d="M612 0L542.3 0L532.3 73Z" fill="#4b545d" stroke="#4b545d"></path><path d="M532.3 73L542.3 0L407.7 73Z" fill="#414a51" stroke="#414a51"></path><path d="M852.3 540L835.3 430L759.7 444Z" fill="#3f474e" stroke="#3f474e"></path><path d="M213.3 109L180.3 198L313 168Z" fill="#363d43" stroke="#363d43"></path><path d="M216.3 258L130.7 394L245.3 331Z" fill="#3d444b" stroke="#3d444b"></path><path d="M668 85L612 0L532.3 73Z" fill="#4b545d" stroke="#4b545d"></path><path d="M709.7 0L612 0L668 85Z" fill="#49515a" stroke="#49515a"></path><path d="M542.3 0L394.7 0L407.7 73Z" fill="#3d444b" stroke="#3d444b"></path><path d="M332 65L213.3 109L313 168Z" fill="#383f46" stroke="#383f46"></path><path d="M826.3 98L763.7 80L716.7 168Z" fill="#49515a" stroke="#49515a"></path><path d="M230.3 0L213.3 109L332 65Z" fill="#3d444b" stroke="#3d444b"></path><path d="M394.7 0L351 0L407.7 73Z" fill="#363d43" stroke="#363d43"></path><path d="M82.7 253L130.7 394L216.3 258Z" fill="#444c54" stroke="#444c54"></path><path d="M243.3 482L173.3 540L285 540Z" fill="#464f57" stroke="#464f57"></path><path d="M835.3 430L890.3 370L756.7 362Z" fill="#464f57" stroke="#464f57"></path><path d="M828.3 281L876.3 199L716.7 168Z" fill="#414a51" stroke="#414a51"></path><path d="M960 468L890.3 370L835.3 430Z" fill="#3f474e" stroke="#3f474e"></path><path d="M130.7 394L173.3 540L243.3 482Z" fill="#383f46" stroke="#383f46"></path><path d="M763.7 80L709.7 0L668 85Z" fill="#3f474e" stroke="#3f474e"></path><path d="M960 290L876.3 199L828.3 281Z" fill="#444c54" stroke="#444c54"></path><path d="M763.7 80L873.3 0L709.7 0Z" fill="#4b545d" stroke="#4b545d"></path><path d="M876.3 199L826.3 98L716.7 168Z" fill="#383f46" stroke="#383f46"></path><path d="M750.7 540L852.3 540L759.7 444Z" fill="#363d43" stroke="#363d43"></path><path d="M213.3 109L113.7 167L180.3 198Z" fill="#343a40" stroke="#343a40"></path><path d="M180.3 198L82.7 253L216.3 258Z" fill="#3d444b" stroke="#3d444b"></path><path d="M116.7 75L113.7 167L213.3 109Z" fill="#3f474e" stroke="#3f474e"></path><path d="M113.7 167L82.7 253L180.3 198Z" fill="#363d43" stroke="#363d43"></path><path d="M130.7 394L70.7 476L173.3 540Z" fill="#383f46" stroke="#383f46"></path><path d="M351 0L230.3 0L332 65Z" fill="#363d43" stroke="#363d43"></path><path d="M0 388L70.7 476L130.7 394Z" fill="#414a51" stroke="#414a51"></path><path d="M960 468L960 354L890.3 370Z" fill="#343a40" stroke="#343a40"></path><path d="M890.3 370L960 290L828.3 281Z" fill="#3b4248" stroke="#3b4248"></path><path d="M876.3 199L960 116L826.3 98Z" fill="#3f474e" stroke="#3f474e"></path><path d="M960 354L960 290L890.3 370Z" fill="#4b545d" stroke="#4b545d"></path><path d="M113.7 167L0 232L82.7 253Z" fill="#363d43" stroke="#363d43"></path><path d="M230.3 0L116.7 75L213.3 109Z" fill="#4b545d" stroke="#4b545d"></path><path d="M70.7 476L78.7 540L173.3 540Z" fill="#464f57" stroke="#464f57"></path><path d="M852.3 540L960 468L835.3 430Z" fill="#3d444b" stroke="#3d444b"></path><path d="M960 290L960 169L876.3 199Z" fill="#343a40" stroke="#343a40"></path><path d="M826.3 98L873.3 0L763.7 80Z" fill="#4b545d" stroke="#4b545d"></path><path d="M960 116L873.3 0L826.3 98Z" fill="#3d444b" stroke="#3d444b"></path><path d="M852.3 540L960 540L960 468Z" fill="#414a51" stroke="#414a51"></path><path d="M230.3 0L124.7 0L116.7 75Z" fill="#3b4248" stroke="#3b4248"></path><path d="M0 232L0 388L82.7 253Z" fill="#343a40" stroke="#343a40"></path><path d="M960 169L960 116L876.3 199Z" fill="#414a51" stroke="#414a51"></path><path d="M82.7 253L0 388L130.7 394Z" fill="#414a51" stroke="#414a51"></path><path d="M70.7 476L0 487L78.7 540Z" fill="#3b4248" stroke="#3b4248"></path><path d="M0 232L113.7 167L0 140Z" fill="#3d444b" stroke="#3d444b"></path><path d="M0 140L113.7 167L0 107Z" fill="#343a40" stroke="#343a40"></path><path d="M0 388L0 487L70.7 476Z" fill="#3f474e" stroke="#3f474e"></path><path d="M0 107L113.7 167L116.7 75Z" fill="#383f46" stroke="#383f46"></path><path d="M0 487L0 540L78.7 540Z" fill="#4b545d" stroke="#4b545d"></path><path d="M0 0L0 107L116.7 75Z" fill="#343a40" stroke="#343a40"></path><path d="M960 116L960 0L873.3 0Z" fill="#414a51" stroke="#414a51"></path><path d="M124.7 0L0 0L116.7 75Z" fill="#4b545d" stroke="#4b545d"></path></g></svg>