<svg id="visual" viewBox="0 0 960 540" width="960" height="540" xmlns="http://www.w3.org/2000/svg" xmlns:xlink="http://www.w3.org/1999/xlink" version="1.1"><rect width="960" height="540" fill="#d9d9d9"></rect><g><g transform="translate(198 117)"><path d="M51.6 -32.1C62.6 -10.5 64.6 13.9 54.5 32.6C44.4 51.2 22.2 63.9 -0.5 64.2C-23.1 64.5 -46.2 52.2 -54 34.9C-61.9 17.6 -54.5 -4.8 -43 -26.6C-31.4 -48.5 -15.7 -69.7 2.3 -71C20.2 -72.3 40.5 -53.7 51.6 -32.1Z" fill="#e4e4e4"></path></g><g transform="translate(776 521)"><path d="M10 -6.2C11.6 -3 10.6 1.3 8.5 4.8C6.4 8.4 3.2 11.2 -0.5 11.5C-4.1 11.7 -8.3 9.4 -9.9 6.2C-11.5 2.9 -10.7 -1.4 -8.6 -4.8C-6.5 -8.3 -3.3 -10.9 0.5 -11.2C4.2 -11.4 8.4 -9.4 10 -6.2Z" fill="#e4e4e4"></path></g><g transform="translate(613 186)"><path d="M15.6 -9.2C19.1 -3.1 19.8 4.4 16.8 9.3C13.7 14.3 6.9 16.6 -0.3 16.8C-7.4 16.9 -14.8 14.9 -17.6 10.1C-20.4 5.3 -18.7 -2.2 -15 -8.5C-11.3 -14.8 -5.6 -19.9 0.2 -20.1C6.1 -20.2 12.2 -15.4 15.6 -9.2Z" fill="#e4e4e4"></path></g><g transform="translate(36 492)"><path d="M49.5 -35.3C57.1 -15.4 51.3 5.4 40.8 24.6C30.4 43.8 15.2 61.3 -3.3 63.2C-21.7 65.1 -43.4 51.3 -57.9 29.8C-72.4 8.3 -79.7 -21 -68.9 -42.7C-58 -64.4 -29 -78.6 -4 -76.2C21 -73.9 41.9 -55.1 49.5 -35.3Z" fill="#e4e4e4"></path></g><g transform="translate(415 421)"><path d="M26.3 -14.8C33.5 -2.8 38.2 11 33.4 18.9C28.6 26.8 14.3 28.9 0.2 28.7C-13.9 28.6 -27.7 26.3 -33.5 17.8C-39.2 9.4 -36.8 -5.3 -29.9 -17.2C-23 -29.1 -11.5 -38.3 -1 -37.8C9.6 -37.2 19.1 -26.9 26.3 -14.8Z" fill="#e4e4e4"></path></g><g transform="translate(883 29)"><path d="M16.9 -8.6C20.2 -4 20 3.7 16.6 8.9C13.2 14 6.6 16.6 1.2 15.9C-4.3 15.3 -8.6 11.3 -10.6 7C-12.6 2.6 -12.3 -2.1 -10.1 -6C-8 -9.9 -4 -12.9 1.4 -13.7C6.8 -14.5 13.5 -13.1 16.9 -8.6Z" fill="#e4e4e4"></path></g><g transform="translate(924 361)"><path d="M57 -30.5C68.3 -13.4 67.9 12.8 56.5 26.9C45 41 22.5 42.9 2.9 41.2C-16.7 39.6 -33.5 34.3 -40.7 22.6C-47.9 11 -45.5 -7 -37.2 -22.4C-28.8 -37.8 -14.4 -50.7 4.2 -53.1C22.9 -55.5 45.7 -47.6 57 -30.5Z" fill="#e4e4e4"></path></g><g transform="translate(420 43)"><path d="M23.3 -15.7C27.4 -6.3 26 3.9 21.2 11.9C16.4 19.9 8.2 25.6 -1.9 26.6C-11.9 27.7 -23.8 24.2 -30.3 15.3C-36.7 6.3 -37.6 -8 -31.7 -18.4C-25.7 -28.8 -12.9 -35.4 -1.6 -34.5C9.6 -33.5 19.2 -25.1 23.3 -15.7Z" fill="#e4e4e4"></path></g><g transform="translate(6 243)"><path d="M44.9 -22.7C55.9 -6.8 61.1 15.7 52.6 30.9C44.2 46 22.1 53.7 -0.1 53.7C-22.3 53.8 -44.6 46.2 -53.3 31C-62.1 15.7 -57.1 -7.2 -46 -23.2C-34.8 -39.1 -17.4 -48.1 -0.3 -48C16.9 -47.8 33.8 -38.6 44.9 -22.7Z" fill="#e4e4e4"></path></g><g transform="translate(203 349)"><path d="M30.2 -18.4C34.6 -9.8 30.6 2.8 24.1 12.7C17.7 22.7 8.8 30.2 0.7 29.8C-7.4 29.3 -14.7 21 -20.6 11.4C-26.6 1.7 -31 -9.4 -27.3 -17.6C-23.6 -25.8 -11.8 -31.1 0.5 -31.4C12.9 -31.7 25.8 -27 30.2 -18.4Z" fill="#e4e4e4"></path></g><g transform="translate(4 7)"><path d="M61.5 -35.2C72.9 -15.9 70.4 11.7 57.9 28.8C45.3 45.9 22.7 52.5 -1.6 53.4C-25.9 54.3 -51.8 49.6 -63.8 32.8C-75.7 16.1 -73.8 -12.7 -60.8 -32.9C-47.9 -53.2 -23.9 -64.9 0.6 -65.2C25.1 -65.5 50.2 -54.5 61.5 -35.2Z" fill="#e4e4e4"></path></g></g></svg>